G04*
G04 #@! TF.GenerationSoftware,Altium Limited,Altium Designer,18.1.8 (232)*
G04*
G04 Layer_Physical_Order=1*
G04 Layer_Color=255*
%FSLAX44Y44*%
%MOMM*%
G71*
G01*
G75*
%ADD10C,0.4000*%
%ADD12C,0.2000*%
%ADD13C,0.1000*%
G04:AMPARAMS|DCode=23|XSize=2mm|YSize=3mm|CornerRadius=0.5mm|HoleSize=0mm|Usage=FLASHONLY|Rotation=90.000|XOffset=0mm|YOffset=0mm|HoleType=Round|Shape=RoundedRectangle|*
%AMROUNDEDRECTD23*
21,1,2.0000,2.0000,0,0,90.0*
21,1,1.0000,3.0000,0,0,90.0*
1,1,1.0000,1.0000,0.5000*
1,1,1.0000,1.0000,-0.5000*
1,1,1.0000,-1.0000,-0.5000*
1,1,1.0000,-1.0000,0.5000*
%
%ADD23ROUNDEDRECTD23*%
G04:AMPARAMS|DCode=24|XSize=0.9mm|YSize=0.6mm|CornerRadius=0.15mm|HoleSize=0mm|Usage=FLASHONLY|Rotation=90.000|XOffset=0mm|YOffset=0mm|HoleType=Round|Shape=RoundedRectangle|*
%AMROUNDEDRECTD24*
21,1,0.9000,0.3000,0,0,90.0*
21,1,0.6000,0.6000,0,0,90.0*
1,1,0.3000,0.1500,0.3000*
1,1,0.3000,0.1500,-0.3000*
1,1,0.3000,-0.1500,-0.3000*
1,1,0.3000,-0.1500,0.3000*
%
%ADD24ROUNDEDRECTD24*%
G04:AMPARAMS|DCode=25|XSize=0.9mm|YSize=0.6mm|CornerRadius=0.15mm|HoleSize=0mm|Usage=FLASHONLY|Rotation=0.000|XOffset=0mm|YOffset=0mm|HoleType=Round|Shape=RoundedRectangle|*
%AMROUNDEDRECTD25*
21,1,0.9000,0.3000,0,0,0.0*
21,1,0.6000,0.6000,0,0,0.0*
1,1,0.3000,0.3000,-0.1500*
1,1,0.3000,-0.3000,-0.1500*
1,1,0.3000,-0.3000,0.1500*
1,1,0.3000,0.3000,0.1500*
%
%ADD25ROUNDEDRECTD25*%
G04:AMPARAMS|DCode=26|XSize=0.8mm|YSize=0.8mm|CornerRadius=0.2mm|HoleSize=0mm|Usage=FLASHONLY|Rotation=180.000|XOffset=0mm|YOffset=0mm|HoleType=Round|Shape=RoundedRectangle|*
%AMROUNDEDRECTD26*
21,1,0.8000,0.4000,0,0,180.0*
21,1,0.4000,0.8000,0,0,180.0*
1,1,0.4000,-0.2000,0.2000*
1,1,0.4000,0.2000,0.2000*
1,1,0.4000,0.2000,-0.2000*
1,1,0.4000,-0.2000,-0.2000*
%
%ADD26ROUNDEDRECTD26*%
%ADD27R,1.7000X0.4000*%
G04:AMPARAMS|DCode=28|XSize=0.8mm|YSize=0.8mm|CornerRadius=0.2mm|HoleSize=0mm|Usage=FLASHONLY|Rotation=270.000|XOffset=0mm|YOffset=0mm|HoleType=Round|Shape=RoundedRectangle|*
%AMROUNDEDRECTD28*
21,1,0.8000,0.4000,0,0,270.0*
21,1,0.4000,0.8000,0,0,270.0*
1,1,0.4000,-0.2000,-0.2000*
1,1,0.4000,-0.2000,0.2000*
1,1,0.4000,0.2000,0.2000*
1,1,0.4000,0.2000,-0.2000*
%
%ADD28ROUNDEDRECTD28*%
G04:AMPARAMS|DCode=29|XSize=0.6mm|YSize=1.3mm|CornerRadius=0.15mm|HoleSize=0mm|Usage=FLASHONLY|Rotation=180.000|XOffset=0mm|YOffset=0mm|HoleType=Round|Shape=RoundedRectangle|*
%AMROUNDEDRECTD29*
21,1,0.6000,1.0000,0,0,180.0*
21,1,0.3000,1.3000,0,0,180.0*
1,1,0.3000,-0.1500,0.5000*
1,1,0.3000,0.1500,0.5000*
1,1,0.3000,0.1500,-0.5000*
1,1,0.3000,-0.1500,-0.5000*
%
%ADD29ROUNDEDRECTD29*%
%ADD30C,0.5000*%
%ADD31C,2.0000*%
%ADD32C,2.0000*%
%ADD33C,0.8000*%
D10*
X55500Y32000D02*
X57500Y30000D01*
X150000Y41828D02*
Y52000D01*
Y41828D02*
X158828Y33000D01*
X196000D01*
X224750Y61750D02*
X237000D01*
X196000Y33000D02*
X224750Y61750D01*
X218250Y68250D02*
X237000D01*
X218000Y68000D02*
X218250Y68250D01*
X252750Y77250D02*
X263000Y87500D01*
X252750Y72000D02*
Y77250D01*
X237000Y68250D02*
X249000D01*
X252750Y72000D01*
X237000Y61750D02*
X252250D01*
X263000Y72500D01*
D12*
X51500Y82729D02*
X57000Y88229D01*
X51500Y82149D02*
Y82729D01*
X57000Y88229D02*
Y90000D01*
X205000Y72750D02*
Y81000D01*
Y72750D02*
Y79500D01*
Y81000D02*
X211750Y87750D01*
X203500Y81000D02*
X205000Y79500D01*
X173000Y74750D02*
X173750Y74000D01*
X188126D01*
X189376Y72750D01*
X191000D01*
X135000Y78000D02*
X136038Y76962D01*
X138000Y78000D02*
Y81000D01*
X136038Y68000D02*
Y76962D01*
X211750Y87750D02*
X237000D01*
X173250Y81000D02*
X203500D01*
X173000Y81250D02*
X173250Y81000D01*
X144750Y87750D02*
X173000D01*
X138000Y81000D02*
X144750Y87750D01*
X73000Y12272D02*
Y12887D01*
Y11657D02*
Y12272D01*
X75272D01*
X89000Y26000D01*
Y51000D01*
X88000Y52000D02*
X89000Y51000D01*
X73000Y12887D02*
X74962Y14848D01*
X86000Y12000D02*
Y16000D01*
X13000Y3000D02*
X77000D01*
X86000Y12000D01*
X6000Y10000D02*
X13000Y3000D01*
X37000Y10000D02*
X38657Y11657D01*
X97000Y27000D02*
X221750D01*
X86000Y16000D02*
X97000Y27000D01*
X38657Y11657D02*
X57000D01*
X221750Y27000D02*
X233172Y38422D01*
X237000Y48750D02*
X261750D01*
X278000Y65000D01*
X260750Y55250D02*
X279093Y73593D01*
X237000Y55250D02*
X260750D01*
X279093Y73593D02*
X288593D01*
X136038Y68000D02*
X136229D01*
X135000D02*
X136038D01*
X161000Y61750D02*
X173000D01*
X159250Y60000D02*
X161000Y61750D01*
X136229Y68000D02*
X138191Y66038D01*
Y64809D02*
Y66038D01*
Y64809D02*
X143000Y60000D01*
X159250D01*
X234172Y42250D02*
X237000D01*
X233172Y41250D02*
X234172Y42250D01*
X233172Y38422D02*
Y41250D01*
X332000Y68579D02*
Y72000D01*
X328422Y65000D02*
X332000Y68579D01*
X278000Y65000D02*
X328422D01*
X332000Y72000D02*
X340000Y80000D01*
X288593Y73593D02*
X295000Y80000D01*
X159000Y81250D02*
X173000D01*
X150000Y68000D02*
X150578Y68579D01*
Y72828D01*
X159000Y81250D01*
D13*
X0Y0D02*
X400000D01*
Y100000D01*
X0D02*
X400000D01*
X0Y0D02*
Y100000D01*
D23*
X340000Y20000D02*
D03*
X295000D02*
D03*
X340000Y50000D02*
D03*
X295000D02*
D03*
X340000Y80000D02*
D03*
X295000D02*
D03*
D24*
X73000Y90000D02*
D03*
X57000D02*
D03*
X73000Y11657D02*
D03*
X57000D02*
D03*
D25*
X150000Y52000D02*
D03*
Y68000D02*
D03*
X135000Y52000D02*
D03*
Y68000D02*
D03*
D26*
X263000Y87500D02*
D03*
Y72500D02*
D03*
D27*
X237000Y87750D02*
D03*
Y81250D02*
D03*
Y74750D02*
D03*
Y68250D02*
D03*
Y61750D02*
D03*
Y55250D02*
D03*
Y48750D02*
D03*
Y42250D02*
D03*
X173000D02*
D03*
Y48750D02*
D03*
Y55250D02*
D03*
Y61750D02*
D03*
Y68250D02*
D03*
Y74750D02*
D03*
Y81250D02*
D03*
Y87750D02*
D03*
D28*
X57500Y30000D02*
D03*
X72500D02*
D03*
D29*
X55500Y49500D02*
D03*
X74500D02*
D03*
X65000Y70500D02*
D03*
D30*
X55500Y32000D02*
Y49500D01*
X43000D02*
X55500D01*
X12000D02*
X43000D01*
Y93000D01*
X73500Y30000D02*
X74000Y30500D01*
X81500D02*
X82000Y31000D01*
X72500Y30000D02*
X73500Y29000D01*
Y30000D01*
X74000Y30500D02*
X81500D01*
X106000Y14000D02*
X118571D01*
X106000D02*
Y14000D01*
X88000Y52000D02*
X135000D01*
X75000D02*
X88000D01*
X65000Y37500D02*
X72500Y30000D01*
X118571Y14000D02*
X124571Y20000D01*
X135000Y52000D02*
X150000D01*
X74500Y51500D02*
Y87000D01*
Y51500D02*
X75000Y52000D01*
X74500Y49500D02*
Y51500D01*
X73000Y88500D02*
X74500Y87000D01*
X73000Y88500D02*
Y90000D01*
X65000Y37500D02*
Y70500D01*
D31*
X118571Y14000D02*
X249000D01*
X295000Y50000D02*
X340000D01*
X285000D02*
X295000D01*
X249000Y14000D02*
X285000Y50000D01*
D32*
X335000D02*
D03*
Y80000D02*
D03*
X290000D02*
D03*
Y50000D02*
D03*
X106000Y14000D02*
D03*
X335000Y20000D02*
D03*
X290000D02*
D03*
D33*
X51500Y82149D02*
D03*
X43000Y93000D02*
D03*
X205000Y72750D02*
D03*
X191000D02*
D03*
X135000Y78000D02*
D03*
X82000Y31000D02*
D03*
X6000Y10000D02*
D03*
X37000D02*
D03*
X12000Y49500D02*
D03*
X218000Y68000D02*
D03*
M02*
