G04*
G04 #@! TF.GenerationSoftware,Altium Limited,Altium Designer,18.1.8 (232)*
G04*
G04 Layer_Color=32896*
%FSLAX44Y44*%
%MOMM*%
G71*
G01*
G75*
%ADD10C,0.4000*%
%ADD12C,0.2000*%
%ADD13C,0.1000*%
%ADD40C,0.2540*%
G36*
X55855Y63598D02*
X55426Y63422D01*
X55036Y63188D01*
X54685Y62934D01*
X54392Y62681D01*
X54139Y62427D01*
X53963Y62232D01*
X53905Y62174D01*
X53846Y62115D01*
X53826Y62076D01*
X53807Y62056D01*
X53495Y61647D01*
X53261Y61257D01*
X53046Y60906D01*
X52890Y60594D01*
X52754Y60340D01*
X52676Y60145D01*
X52656Y60067D01*
X52636Y60008D01*
X52617Y59989D01*
Y59969D01*
X50393D01*
X50647Y60633D01*
X50939Y61237D01*
X51232Y61764D01*
X51388Y62017D01*
X51544Y62232D01*
X51681Y62447D01*
X51817Y62622D01*
X51934Y62778D01*
X52032Y62915D01*
X52129Y63012D01*
X52188Y63090D01*
X52227Y63129D01*
X52246Y63149D01*
X43000D01*
Y65607D01*
X55855D01*
Y63598D01*
D02*
G37*
G36*
X47116Y57648D02*
X47487Y57570D01*
X47799Y57472D01*
X48091Y57355D01*
X48326Y57219D01*
X48501Y57121D01*
X48599Y57043D01*
X48638Y57024D01*
X48930Y56770D01*
X49184Y56477D01*
X49379Y56185D01*
X49535Y55892D01*
X49652Y55639D01*
X49749Y55424D01*
X49769Y55346D01*
X49788Y55287D01*
X49808Y55248D01*
Y55229D01*
X49964Y55522D01*
X50140Y55795D01*
X50315Y56009D01*
X50510Y56204D01*
X50666Y56360D01*
X50803Y56458D01*
X50881Y56536D01*
X50920Y56556D01*
X51213Y56712D01*
X51505Y56829D01*
X51778Y56926D01*
X52032Y56985D01*
X52246Y57024D01*
X52422Y57043D01*
X52539D01*
X52578D01*
X52890Y57024D01*
X53163Y56985D01*
X53417Y56907D01*
X53651Y56848D01*
X53826Y56770D01*
X53963Y56692D01*
X54041Y56653D01*
X54080Y56634D01*
X54314Y56477D01*
X54529Y56321D01*
X54704Y56146D01*
X54860Y56009D01*
X54997Y55873D01*
X55075Y55756D01*
X55134Y55678D01*
X55153Y55658D01*
X55290Y55424D01*
X55407Y55209D01*
X55504Y54975D01*
X55563Y54761D01*
X55621Y54585D01*
X55660Y54449D01*
X55680Y54351D01*
Y54312D01*
X55719Y54000D01*
X55758Y53649D01*
X55777Y53278D01*
X55797Y52908D01*
X55816Y52576D01*
Y46938D01*
X43000D01*
Y52498D01*
X43019Y52830D01*
Y53356D01*
X43039Y53590D01*
Y53941D01*
X43059Y54078D01*
Y54273D01*
X43078Y54332D01*
Y54410D01*
X43137Y54780D01*
X43215Y55112D01*
X43312Y55405D01*
X43429Y55658D01*
X43527Y55873D01*
X43605Y56029D01*
X43663Y56107D01*
X43683Y56146D01*
X43878Y56399D01*
X44112Y56614D01*
X44327Y56809D01*
X44541Y56965D01*
X44717Y57082D01*
X44873Y57180D01*
X44970Y57238D01*
X45009Y57258D01*
X45321Y57394D01*
X45614Y57492D01*
X45907Y57570D01*
X46160Y57609D01*
X46394Y57648D01*
X46550Y57667D01*
X46667D01*
X46706D01*
X47116Y57648D01*
D02*
G37*
G36*
X52403Y44773D02*
X52890Y44695D01*
X53319Y44578D01*
X53690Y44441D01*
X53963Y44285D01*
X54080Y44227D01*
X54178Y44168D01*
X54256Y44129D01*
X54314Y44090D01*
X54334Y44051D01*
X54353D01*
X54685Y43759D01*
X54958Y43447D01*
X55192Y43154D01*
X55348Y42861D01*
X55485Y42608D01*
X55563Y42393D01*
X55582Y42315D01*
X55602Y42276D01*
X55621Y42237D01*
Y42218D01*
X55660Y42062D01*
X55680Y41886D01*
X55719Y41672D01*
X55738Y41437D01*
X55777Y40930D01*
X55797Y40403D01*
Y40150D01*
X55816Y39916D01*
Y35000D01*
X43000D01*
Y37594D01*
X47838D01*
Y39896D01*
X47857Y40169D01*
Y40423D01*
X47877Y40677D01*
X47896Y40891D01*
X47916Y41086D01*
X47935Y41262D01*
Y41418D01*
X47955Y41554D01*
X47974Y41672D01*
X47994Y41769D01*
Y41847D01*
X48013Y41906D01*
Y41945D01*
X48091Y42198D01*
X48169Y42452D01*
X48267Y42666D01*
X48384Y42881D01*
X48462Y43037D01*
X48540Y43173D01*
X48599Y43271D01*
X48618Y43291D01*
X48813Y43525D01*
X49008Y43739D01*
X49223Y43934D01*
X49437Y44090D01*
X49613Y44207D01*
X49749Y44305D01*
X49847Y44363D01*
X49886Y44383D01*
X50198Y44520D01*
X50530Y44637D01*
X50861Y44715D01*
X51174Y44754D01*
X51447Y44793D01*
X51661Y44812D01*
X51739D01*
X51798D01*
X51837D01*
X51856D01*
X52403Y44773D01*
D02*
G37*
G36*
X171903Y88821D02*
X176331Y82149D01*
X173229D01*
X170381Y86480D01*
X167552Y82149D01*
X164431D01*
X168840Y88821D01*
X164821Y94966D01*
X167845D01*
X170381Y91123D01*
X172897Y94966D01*
X175921D01*
X171903Y88821D01*
D02*
G37*
G36*
X159515Y94576D02*
X159749Y94185D01*
X160003Y93834D01*
X160257Y93542D01*
X160510Y93288D01*
X160705Y93113D01*
X160764Y93054D01*
X160822Y92996D01*
X160861Y92976D01*
X160881Y92956D01*
X161290Y92644D01*
X161681Y92410D01*
X162032Y92196D01*
X162344Y92040D01*
X162598Y91903D01*
X162793Y91825D01*
X162871Y91806D01*
X162929Y91786D01*
X162949Y91767D01*
X162968D01*
Y89543D01*
X162305Y89796D01*
X161700Y90089D01*
X161173Y90382D01*
X160920Y90538D01*
X160705Y90694D01*
X160491Y90830D01*
X160315Y90967D01*
X160159Y91084D01*
X160023Y91181D01*
X159925Y91279D01*
X159847Y91337D01*
X159808Y91376D01*
X159789Y91396D01*
Y82149D01*
X157331D01*
Y95005D01*
X159340D01*
X159515Y94576D01*
D02*
G37*
G36*
X191000Y82149D02*
X188405D01*
Y94966D01*
X191000D01*
Y82149D01*
D02*
G37*
G36*
X186845Y92800D02*
X183080D01*
Y82149D01*
X180486D01*
Y92800D01*
X176721D01*
Y94966D01*
X186845D01*
Y92800D01*
D02*
G37*
%LPC*%
G36*
X52324Y54527D02*
X52246D01*
X52227D01*
X52012Y54507D01*
X51798Y54468D01*
X51642Y54410D01*
X51486Y54332D01*
X51369Y54254D01*
X51291Y54195D01*
X51232Y54156D01*
X51213Y54137D01*
X51095Y53980D01*
X50978Y53825D01*
X50900Y53649D01*
X50842Y53473D01*
X50803Y53337D01*
X50783Y53220D01*
X50764Y53142D01*
Y53025D01*
X50744Y52908D01*
Y52342D01*
X50725Y52010D01*
Y49533D01*
X53690D01*
Y52127D01*
X53670Y52322D01*
Y52791D01*
X53651Y52908D01*
Y53122D01*
X53631Y53200D01*
Y53220D01*
X53592Y53454D01*
X53534Y53649D01*
X53456Y53805D01*
X53378Y53941D01*
X53300Y54058D01*
X53241Y54137D01*
X53202Y54176D01*
X53183Y54195D01*
X53027Y54312D01*
X52871Y54390D01*
X52715Y54449D01*
X52558Y54488D01*
X52442Y54507D01*
X52324Y54527D01*
D02*
G37*
G36*
X46940Y54995D02*
X46862D01*
X46843D01*
X46609Y54975D01*
X46394Y54936D01*
X46199Y54878D01*
X46043Y54819D01*
X45926Y54741D01*
X45828Y54683D01*
X45770Y54644D01*
X45750Y54624D01*
X45614Y54488D01*
X45497Y54332D01*
X45419Y54156D01*
X45341Y54019D01*
X45302Y53883D01*
X45263Y53785D01*
X45243Y53707D01*
Y53688D01*
X45224Y53610D01*
Y53512D01*
X45204Y53259D01*
X45185Y52966D01*
Y52654D01*
X45165Y52381D01*
Y49533D01*
X48599D01*
Y52205D01*
X48579Y52478D01*
X48559Y52712D01*
Y52927D01*
X48540Y53103D01*
X48520Y53278D01*
X48501Y53415D01*
X48481Y53532D01*
X48462Y53649D01*
X48443Y53785D01*
X48404Y53883D01*
Y53903D01*
X48326Y54098D01*
X48247Y54254D01*
X48150Y54390D01*
X48052Y54507D01*
X47955Y54585D01*
X47877Y54644D01*
X47838Y54683D01*
X47818Y54702D01*
X47662Y54800D01*
X47487Y54878D01*
X47331Y54917D01*
X47175Y54956D01*
X47038Y54975D01*
X46940Y54995D01*
D02*
G37*
G36*
X51934Y42140D02*
X51856D01*
X51817D01*
X51622Y42120D01*
X51427Y42101D01*
X51252Y42042D01*
X51115Y42003D01*
X50998Y41945D01*
X50900Y41886D01*
X50842Y41866D01*
X50822Y41847D01*
X50666Y41730D01*
X50549Y41593D01*
X50432Y41457D01*
X50354Y41320D01*
X50276Y41203D01*
X50237Y41106D01*
X50218Y41047D01*
X50198Y41028D01*
X50159Y40930D01*
X50140Y40794D01*
X50081Y40501D01*
X50042Y40169D01*
X50023Y39818D01*
Y39506D01*
X50003Y39370D01*
Y37594D01*
X53651D01*
Y39526D01*
X53631Y39701D01*
X53612Y40033D01*
Y40286D01*
X53592Y40462D01*
X53573Y40579D01*
X53553Y40657D01*
Y40677D01*
X53495Y40911D01*
X53417Y41106D01*
X53319Y41301D01*
X53222Y41437D01*
X53124Y41574D01*
X53046Y41652D01*
X52988Y41711D01*
X52968Y41730D01*
X52793Y41866D01*
X52597Y41964D01*
X52403Y42042D01*
X52227Y42081D01*
X52071Y42120D01*
X51934Y42140D01*
D02*
G37*
%LPD*%
D10*
X220000Y7000D02*
Y67000D01*
X140000Y7000D02*
X220000D01*
X140000D02*
Y67000D01*
X220000D01*
D12*
X6030Y86190D02*
Y93810D01*
X17460Y86190D02*
X20000D01*
X17460D02*
Y93810D01*
X14920D02*
X17460D01*
X14920Y86190D02*
Y93810D01*
X12380Y86190D02*
X27620D01*
Y93810D01*
X12380D02*
X27620D01*
X12380Y86190D02*
Y93810D01*
X6030Y6190D02*
Y13810D01*
X17460Y6190D02*
X20000D01*
X17460D02*
Y13810D01*
X14920D02*
X17460D01*
X14920Y6190D02*
Y13810D01*
X12380Y6190D02*
X27620D01*
Y13810D01*
X12380D02*
X27620D01*
X12380Y6190D02*
Y13810D01*
D13*
X0Y0D02*
X400000D01*
Y100000D01*
X0D02*
X400000D01*
X0Y0D02*
Y100000D01*
D40*
X30410Y52970D02*
G03*
X8410Y52970I-11000J0D01*
G01*
Y46620D02*
G03*
X30410Y46620I11000J0D01*
G01*
Y52970D01*
X8410Y46620D02*
Y52970D01*
M02*
